<svg id="Layer_1" data-name="Layer 1" xmlns="http://www.w3.org/2000/svg" viewBox="0 0 639.18 122.11"><defs><style>.cls-1,.cls-2{fill:#fff;}.cls-2{font-size:74.47px;font-family:CenturyGothic, Century Gothic;}</style></defs><path class="cls-1" d="M233.54,483.41V555H193.61V483.41h39.93m1.11-4.46H192.49a3.35,3.35,0,0,0-3.34,3.34v73.87a3.35,3.35,0,0,0,3.34,3.34h42.16a3.35,3.35,0,0,0,3.35-3.34V482.29A3.35,3.35,0,0,0,234.65,479Z" transform="translate(-87.92 -478.95)"/><path class="cls-1" d="M201.42,547.51a2.23,2.23,0,1,0,2.23,2.23A2.23,2.23,0,0,0,201.42,547.51Z" transform="translate(-87.92 -478.95)"/><path class="cls-1" d="M213.69,486.72a2.23,2.23,0,1,0,2.23,2.23A2.23,2.23,0,0,0,213.69,486.72Z" transform="translate(-87.92 -478.95)"/><rect class="cls-1" x="53.82" y="105.65" width="19.8" height="10.88"/><rect class="cls-1" x="37.65" y="114.3" width="52.98" height="7.81" rx="3.35"/><path class="cls-1" d="M210.9,582.37H93.22V518.23h99.83v-4.46H91.27a3.35,3.35,0,0,0-3.35,3.35v66.64a3.35,3.35,0,0,0,3.35,3.35H212a3.35,3.35,0,0,0,3.34-3.35V564.52H210.9Z" transform="translate(-87.92 -478.95)"/><path class="cls-1" d="M212,513.77H199.19v4.46H210.9v40.16h4.46V517.12A3.35,3.35,0,0,0,212,513.77Z" transform="translate(-87.92 -478.95)"/><text class="cls-2" transform="translate(181.08 87.62)">Gadget Hub</text></svg>